<?xml version="1.0" encoding="UTF-8" standalone="no" ?>
<!DOCTYPE svg PUBLIC "-//W3C//DTD SVG 1.1//EN" "http://www.w3.org/Graphics/SVG/1.1/DTD/svg11.dtd">
<svg xmlns="http://www.w3.org/2000/svg" xmlns:xlink="http://www.w3.org/1999/xlink" version="1.1" width="1080" height="1080" viewBox="0 0 1080 1080" xml:space="preserve">
<desc>Created with Fabric.js 5.2.4</desc>
<defs>
</defs>
<g transform="matrix(1 0 0 1 540 540)" id="1f528b85-2945-4f63-b9e3-48d50a693d3c"  >
<rect style="stroke: none; stroke-width: 1; stroke-dasharray: none; stroke-linecap: butt; stroke-dashoffset: 0; stroke-linejoin: miter; stroke-miterlimit: 4; fill: rgb(255,255,255); fill-rule: nonzero; opacity: 1; visibility: hidden;" vector-effect="non-scaling-stroke"  x="-540" y="-540" rx="0" ry="0" width="1080" height="1080" />
</g>
<g transform="matrix(1 0 0 1 540 540)" id="d2b1880a-de88-47c3-8794-1e1d85b7cff6"  >
</g>
<g transform="matrix(1.29 0 0 1.29 540 540)"  >
<g style="" vector-effect="non-scaling-stroke"   >
		<g transform="matrix(0.13 0 0 -0.13 8.02 -326.99)"  >
<path style="stroke: none; stroke-width: 1; stroke-dasharray: none; stroke-linecap: butt; stroke-dashoffset: 0; stroke-linejoin: miter; stroke-miterlimit: 4; fill: rgb(255,255,255); fill-rule: nonzero; opacity: 1;" vector-effect="non-scaling-stroke"  transform=" translate(-3130.47, -5157.18)" d="M 3056 5385 C 2927 5339 2855 5183 2909 5065 C 2954 4965 3027 4916 3130 4916 C 3214 4915 3290 4954 3334 5019 C 3375 5081 3382 5184 3350 5252 C 3321 5315 3263 5365 3199 5384 C 3135 5403 3107 5403 3056 5385 z" stroke-linecap="round" />
</g>
		<g transform="matrix(0.13 0 0 -0.13 -150.2 -287.28)"  >
<path style="stroke: none; stroke-width: 1; stroke-dasharray: none; stroke-linecap: butt; stroke-dashoffset: 0; stroke-linejoin: miter; stroke-miterlimit: 4; fill: rgb(255,255,255); fill-rule: nonzero; opacity: 1;" vector-effect="non-scaling-stroke"  transform=" translate(-1943.84, -4859.31)" d="M 1836 5080 C 1781 5052 1754 5025 1725 4966 C 1646 4808 1761 4619 1936 4619 C 2060 4619 2167 4708 2186 4828 C 2201 4920 2133 5041 2045 5081 C 1990 5106 1888 5106 1836 5080 z" stroke-linecap="round" />
</g>
		<g transform="matrix(0.13 0 0 -0.13 165.33 -286.53)"  >
<path style="stroke: none; stroke-width: 1; stroke-dasharray: none; stroke-linecap: butt; stroke-dashoffset: 0; stroke-linejoin: miter; stroke-miterlimit: 4; fill: rgb(255,255,255); fill-rule: nonzero; opacity: 1;" vector-effect="non-scaling-stroke"  transform=" translate(-4310.3, -4853.7)" d="M 4239 5086 C 4184 5071 4144 5042 4108 4988 C 4075 4939 4066 4896 4073 4820 C 4082 4717 4130 4657 4229 4624 C 4353 4584 4501 4656 4540 4775 C 4570 4867 4529 4992 4448 5050 C 4412 5077 4393 5083 4310 5094 C 4296 5096 4264 5092 4239 5086 z" stroke-linecap="round" />
</g>
		<g transform="matrix(0.13 0 0 -0.13 0 -21.13)"  >
<path style="stroke: none; stroke-width: 1; stroke-dasharray: none; stroke-linecap: butt; stroke-dashoffset: 0; stroke-linejoin: miter; stroke-miterlimit: 4; fill: rgb(255,255,255); fill-rule: nonzero; opacity: 1;" vector-effect="non-scaling-stroke"  transform=" translate(-3070.31, -2863.2)" d="M 2920 4555 C 2841 4537 2759 4497 2575 4388 C 2270 4206 2187 4139 2138 4039 L 2110 3983 L 2109 3689 C 2108 3527 2105 3369 2101 3336 L 2095 3278 L 1947 3181 C 1866 3128 1738 3043 1663 2993 C 1511 2889 1489 2883 1427 2926 C 1406 2940 1197 3096 963 3272 C 388 3704 379 3710 260 3710 C 111 3710 22 3631 13 3491 C 9 3430 14 3411 70 3250 C 177 2948 288 2607 300 2542 C 310 2494 310 2463 301 2410 C 285 2310 186 1972 59 1585 C 25 1481 16 1440 16 1380 C 15 1313 18 1301 45 1260 C 65 1231 94 1206 130 1187 C 178 1162 193 1159 245 1163 C 282 1166 325 1177 356 1193 C 384 1207 600 1357 836 1526 C 1338 1885 1400 1927 1446 1936 C 1486 1943 1494 1939 1633 1828 C 1844 1660 2023 1558 2174 1520 C 2275 1495 2459 1493 2562 1516 C 2610 1527 2690 1562 2804 1620 C 2898 1668 3040 1741 3120 1782 C 3330 1889 3439 1920 3615 1920 C 3797 1920 3913 1886 4255 1735 C 4565 1597 4620 1579 4755 1573 C 4933 1565 5057 1607 5288 1754 C 5614 1962 6033 2330 6103 2470 C 6134 2533 6136 2556 6114 2631 C 6100 2679 6084 2699 5971 2811 C 5617 3163 5235 3417 4812 3580 C 4631 3650 4334 3726 4165 3746 C 4096 3754 4095 3755 3972 3913 C 3814 4114 3499 4391 3320 4484 C 3183 4555 3038 4581 2920 4555 z M 3174 3990 C 3271 3880 3350 3786 3350 3781 C 3350 3771 3263 3749 3232 3751 C 3217 3751 2939 4054 2895 4118 C 2876 4145 2882 4158 2924 4176 C 2987 4203 2988 4202 3174 3990 z M 3341 4040 C 3475 3936 3600 3822 3600 3802 C 3600 3794 3583 3790 3550 3790 C 3504 3790 3498 3793 3458 3837 C 3434 3863 3381 3921 3340 3965 C 3299 4010 3240 4075 3210 4110 C 3142 4189 3161 4179 3341 4040 z M 2807 4043 C 2823 4022 2892 3942 2958 3866 C 3025 3789 3077 3724 3075 3720 C 3071 3713 3007 3694 2969 3688 C 2947 3684 2670 3993 2670 4020 C 2670 4030 2750 4080 2766 4080 C 2772 4080 2790 4063 2807 4043 z M 2601 3903 C 2657 3843 2757 3727 2794 3678 L 2822 3640 L 2795 3630 C 2781 3625 2752 3617 2731 3614 C 2696 3608 2691 3611 2628 3677 C 2571 3736 2518 3796 2472 3852 C 2460 3866 2463 3873 2495 3909 C 2516 3932 2538 3950 2544 3950 C 2550 3950 2576 3929 2601 3903 z M 2561 3567 C 2569 3552 2564 3547 2525 3530 C 2499 3519 2475 3510 2470 3510 C 2451 3510 2443 3585 2457 3650 L 2463 3683 L 2507 3634 C 2531 3607 2555 3577 2561 3567 z M 4211 3386 C 4285 3371 4352 3355 4359 3351 C 4367 3346 4354 3311 4311 3229 C 4278 3166 4238 3075 4221 3025 C 4203 2971 4185 2936 4178 2937 C 4171 2937 4104 2958 4030 2983 C 3859 3040 3787 3050 3535 3050 C 3316 3050 3227 3039 3090 2993 C 2827 2907 2700 2840 2095 2474 C 1941 2380 1789 2291 1756 2275 L 1698 2247 L 1651 2264 C 1513 2317 1416 2322 1305 2280 C 1232 2252 1061 2137 734 1896 C 597 1795 483 1714 482 1715 C 480 1717 490 1756 503 1802 C 539 1918 636 2290 655 2378 C 663 2418 670 2469 670 2490 C 670 2545 612 2762 536 2995 C 500 3104 472 3195 473 3196 C 475 3198 550 3142 640 3073 C 1052 2757 1270 2597 1330 2567 C 1390 2537 1402 2535 1495 2535 C 1622 2535 1638 2543 1928 2741 C 2493 3127 2683 3229 3021 3330 C 3296 3412 3452 3429 3835 3419 C 4040 3414 4095 3409 4211 3386 z M 4895 3156 C 5071 3069 5206 2985 5385 2850 C 5489 2772 5656 2634 5715 2579 C 5727 2567 5657 2496 5490 2352 C 5331 2214 5257 2159 5095 2055 C 4950 1962 4857 1917 4830 1925 C 4819 1928 4791 1955 4766 1983 C 4672 2094 4581 2259 4546 2383 C 4508 2514 4510 2782 4550 2900 C 4604 3063 4695 3230 4728 3230 C 4737 3230 4813 3197 4895 3156 z M 3717 2680 C 3849 2662 4099 2582 4141 2544 C 4150 2536 4162 2498 4169 2460 C 4175 2421 4198 2335 4220 2268 C 4242 2202 4260 2143 4260 2138 C 4260 2133 4250 2136 4238 2144 C 4150 2202 3852 2286 3727 2289 C 3683 2290 3643 2293 3640 2295 C 3636 2297 3580 2295 3514 2290 C 3313 2275 3123 2206 2853 2053 C 2658 1941 2632 1929 2545 1899 C 2447 1866 2286 1865 2185 1898 C 2105 1923 2017 1975 2023 1993 C 2025 2000 2094 2046 2176 2096 C 2258 2146 2419 2245 2535 2315 C 2901 2538 3074 2619 3267 2659 C 3321 2670 3379 2681 3395 2683 C 3461 2692 3643 2689 3717 2680 z" stroke-linecap="round" />
</g>
		<g transform="matrix(0.13 0 0 -0.13 261.96 13.14)"  >
<path style="stroke: none; stroke-width: 1; stroke-dasharray: none; stroke-linecap: butt; stroke-dashoffset: 0; stroke-linejoin: miter; stroke-miterlimit: 4; fill: rgb(255,255,255); fill-rule: nonzero; opacity: 1;" vector-effect="non-scaling-stroke"  transform=" translate(-5035, -2606.16)" d="M 4955 2764 C 4883 2727 4854 2668 4862 2580 C 4871 2493 4926 2439 5014 2432 C 5081 2427 5144 2453 5180 2502 C 5216 2550 5219 2641 5188 2695 C 5144 2770 5031 2804 4955 2764 z" stroke-linecap="round" />
</g>
		<g transform="matrix(0.13 0 0 -0.13 250.43 -201.35)"  >
<path style="stroke: none; stroke-width: 1; stroke-dasharray: none; stroke-linecap: butt; stroke-dashoffset: 0; stroke-linejoin: miter; stroke-miterlimit: 4; fill: rgb(255,255,255); fill-rule: nonzero; opacity: 1;" vector-effect="non-scaling-stroke"  transform=" translate(-4948.55, -4214.87)" d="M 4893 4451 C 4800 4428 4732 4360 4710 4270 C 4685 4166 4729 4064 4824 4005 C 4867 3979 4883 3975 4944 3975 C 5025 3976 5074 3996 5126 4052 C 5176 4104 5193 4148 5194 4216 C 5194 4338 5100 4438 4970 4453 C 4945 4456 4911 4455 4893 4451 z" stroke-linecap="round" />
</g>
		<g transform="matrix(0.13 0 0 -0.13 -229.68 -164.91)"  >
<path style="stroke: none; stroke-width: 1; stroke-dasharray: none; stroke-linecap: butt; stroke-dashoffset: 0; stroke-linejoin: miter; stroke-miterlimit: 4; fill: rgb(255,255,255); fill-rule: nonzero; opacity: 1;" vector-effect="non-scaling-stroke"  transform=" translate(-1347.71, -3941.58)" d="M 1273 4176 C 1185 4147 1129 4081 1110 3981 C 1082 3831 1189 3698 1338 3698 C 1410 3698 1456 3717 1514 3770 C 1634 3881 1608 4073 1462 4153 C 1403 4185 1329 4194 1273 4176 z" stroke-linecap="round" />
</g>
		<g transform="matrix(0.13 0 0 -0.13 9.4 215.09)"  >
<path style="stroke: none; stroke-width: 1; stroke-dasharray: none; stroke-linecap: butt; stroke-dashoffset: 0; stroke-linejoin: miter; stroke-miterlimit: 4; fill: rgb(255,255,255); fill-rule: nonzero; opacity: 1;" vector-effect="non-scaling-stroke"  transform=" translate(-3140.83, -1091.58)" d="M 3458 1461 C 3351 1432 3293 1406 3000 1258 C 2849 1182 2696 1112 2660 1103 C 2610 1089 2560 1085 2440 1086 C 2292 1088 2278 1090 2120 1130 L 1955 1173 L 1608 1177 C 1213 1182 1143 1176 1098 1133 C 1009 1049 1013 933 1107 849 L 1148 812 L 1526 807 L 1905 803 L 2095 755 C 2276 710 2292 708 2430 706 C 2680 705 2817 750 3260 985 C 3381 1048 3491 1085 3608 1101 C 3774 1123 3938 1082 4239 940 C 4497 819 4509 817 4842 816 L 5118 815 L 5162 845 C 5189 864 5214 893 5229 923 C 5251 968 5252 976 5241 1023 C 5235 1052 5219 1090 5207 1107 C 5169 1164 5140 1171 4907 1181 C 4538 1196 4543 1195 4296 1312 C 4002 1452 3933 1470 3700 1476 C 3551 1479 3515 1477 3458 1461 z" stroke-linecap="round" />
</g>
		<g transform="matrix(0.13 0 0 -0.13 7.22 315.42)"  >
<path style="stroke: none; stroke-width: 1; stroke-dasharray: none; stroke-linecap: butt; stroke-dashoffset: 0; stroke-linejoin: miter; stroke-miterlimit: 4; fill: rgb(255,255,255); fill-rule: nonzero; opacity: 1;" vector-effect="non-scaling-stroke"  transform=" translate(-3124.45, -339.08)" d="M 3545 651 C 3450 625 3407 607 3173 497 C 2866 352 2767 323 2544 313 C 2344 304 2183 328 1936 404 C 1871 424 1815 438 1811 435 C 1789 412 1890 342 2085 245 C 2278 150 2424 101 2715 34 C 2807 13 3273 3 3419 19 C 3615 40 3905 122 4089 206 C 4199 258 4407 379 4433 407 C 4450 427 4448 428 4338 488 C 4089 621 3960 661 3755 666 C 3641 669 3602 666 3545 651 z" stroke-linecap="round" />
</g>
</g>
</g>
</svg>